<?xml version="1.0" encoding="UTF-8" standalone="no"?>
<!-- Created with Inkscape (http://www.inkscape.org/) -->

<svg
   version="1.1"
   id="svg1"
   width="1200"
   height="864"
   viewBox="0 0 1200 864"
   sodipodi:docname="RIG black and white.svg"
   inkscape:version="1.4.3 (0d15f75, 2025-12-25)"
   xmlns:inkscape="http://www.inkscape.org/namespaces/inkscape"
   xmlns:sodipodi="http://sodipodi.sourceforge.net/DTD/sodipodi-0.dtd"
   xmlns="http://www.w3.org/2000/svg"
   xmlns:svg="http://www.w3.org/2000/svg">
  <defs
     id="defs1" />
  <sodipodi:namedview
     id="namedview1"
     pagecolor="#ffffff"
     bordercolor="#000000"
     borderopacity="0.25"
     inkscape:showpageshadow="2"
     inkscape:pageopacity="0.0"
     inkscape:pagecheckerboard="0"
     inkscape:deskcolor="#d1d1d1"
     inkscape:zoom="0.95508517"
     inkscape:cx="604.1346"
     inkscape:cy="550.73622"
     inkscape:window-width="1769"
     inkscape:window-height="1360"
     inkscape:window-x="3575"
     inkscape:window-y="0"
     inkscape:window-maximized="0"
     inkscape:current-layer="g1" />
  <g
     inkscape:groupmode="layer"
     inkscape:label="Image"
     id="g1">
    <path
       style="fill:#000000"
       d="m 621.79715,775.05174 c -15.29556,-7.12201 -17.88901,-27.6138 -4.69408,-37.08963 l 4.1889,-3.00822 0.0611,-16.88746 0.0611,-16.88747 -19.01396,-18.61253 -19.01395,-18.61254 0.014,-22.75 c 0.008,-12.5125 -0.33088,-22.75 -0.75235,-22.75 -0.42148,0 -5.93398,5.18116 -12.25,11.51368 l -11.48369,11.51368 -0.27641,16.23632 -0.27642,16.23632 4.14248,2.89828 c 6.34241,4.43747 9.91516,10.77751 9.88839,17.54751 -0.0804,20.33706 -23.44895,29.60372 -37.75473,14.97142 -9.01539,-9.22116 -7.6306,-23.8572 3.00583,-31.76891 l 4.90473,-3.6483 -0.15279,-16 c -0.084,-8.8 -0.11415,-17.70099 -0.0669,-19.77999 0.0807,-3.55449 1.27989,-4.95642 20.10119,-23.5 l 20.01535,-19.72001 0.63548,-9.75 0.63547,-9.75 h -20.09531 -20.09531 l -15.5077,15.25 -15.50771,15.25 -0.40865,14.99379 -0.40866,14.99378 5.6578,5.50622 c 7.81902,7.60954 9.68105,14.17127 6.54428,23.06182 -3.46281,9.81464 -10.8358,15.33543 -20.48038,15.33543 -15.87149,0 -26.64284,-16.57262 -20.11387,-30.94684 1.67991,-3.6985 9.32386,-11.4442 11.29387,-11.4442 0.451,0 0.82017,-8.6625 0.82038,-19.25 l 3.8e-4,-19.25 11.54668,-11.5 11.54668,-11.5 -18.29706,-0.55799 c -16.95696,-0.51713 -18.71294,-0.74881 -23.97525,-3.16322 -12.10012,-5.55166 -17.97873,-14.09351 -19.42685,-28.22794 l -0.67115,-6.55085 -14.61191,0.0611 -14.6119,0.0611 -3.03221,4.17515 c -7.77766,10.70931 -22.16333,12.4797 -31.68077,3.89884 -15.38621,-13.87211 -6.48347,-38.26799 13.93086,-38.17423 6.42161,0.0295 12.0367,2.75919 16.82083,8.17722 l 3.96129,4.48616 14.75,0.69077 14.75,0.69077 v -7.37308 -7.37308 l -11.25,-11.14882 -11.25,-11.14881 -16.75,-0.0115 c -12.01032,-0.008 -16.75,0.31545 -16.75,1.14406 0,2.27623 -5.18968,7.90051 -9.15811,9.92505 -15.16528,7.73675 -33.5155,-5.54005 -31.56572,-22.83852 0.96157,-8.53095 10.12091,-17.42934 19.36782,-18.816 7.55083,-1.13232 17.40833,3.90679 20.91761,10.69298 l 1.48976,2.88088 h 19.34398 19.34399 l 8.11525,8.25 8.11525,8.25 0.0151,-27.75 0.0151,-27.75 h -40.85947 -40.85947 l -18.5988,19 -18.59879,19 h -20.51616 -20.51605 l -1.49558,2.89213 c -0.82256,1.59068 -3.2036,4.24492 -5.29119,5.89832 -10.90571,8.63748 -26.52946,5.34599 -32.61777,-6.87165 -7.75272,-15.5577 2.23012,-31.9188 19.47549,-31.9188 7.54399,0 13.13011,2.87075 17.30289,8.89207 l 2.78484,4.01851 16.93006,0.29471 16.93007,0.29471 19.15561,-19.25 19.1556,-19.25 23.05931,-0.0374 23.05931,-0.0374 -11.81989,-11.45118 -11.81989,-11.45117 -15.82337,0.0825 -15.82337,0.0825 -2.35674,3.61871 c -1.29621,1.99028 -4.30801,4.9855 -6.69288,6.65604 -3.86008,2.70386 -5.13069,3.03733 -11.57303,3.03733 -6.22615,0 -7.81907,-0.38527 -11.40532,-2.75853 -6.66463,-4.41045 -9.60106,-9.74318 -9.99485,-18.15126 -0.30263,-6.4615 -0.0667,-7.50363 2.66104,-11.75258 6.36014,-9.9072 18.71178,-13.21368 28.32205,-7.58169 2.56209,1.50148 6.20178,4.53314 8.08822,6.73702 l 3.42988,4.00704 h 19.15524 19.15525 l 19.74883,19.48603 19.74883,19.48602 9.25,0.014 9.25,0.014 v -19.75658 -19.75659 l -14.92391,-15.24341 -14.9239,-15.24342 h -15.94321 -15.94321 l -2.61049,3.94473 c -4.88331,7.37918 -15.44336,11.39748 -23.56094,8.9654 -5.38831,-1.61438 -11.90291,-7.27895 -14.20821,-12.35432 -2.39657,-5.27629 -2.39358,-13.84185 0.007,-19.12655 2.32988,-5.12974 8.00881,-9.86181 13.77137,-11.47522 8.74166,-2.44752 20.01102,2.13724 24.38569,9.92091 l 2.19135,3.89899 18.74665,-0.53067 18.74665,-0.53067 12.13274,11.7817 12.13274,11.78169 v -16.0925 c 0,-14.37246 0.25032,-16.78214 2.34197,-22.54456 4.89756,-13.49265 14.29847,-20.31821 29.09703,-21.126 l 7.88118,-0.4302 0.15334,-14.79136 0.15335,-14.79137 -5.80863,-5.32955 c -4.76041,-4.36779 -6.10198,-6.33864 -7.43421,-10.92137 -2.18183,-7.50521 -0.7433,-14.30108 4.26598,-20.15329 4.73363,-5.53018 9.96081,-8.09579 16.49443,-8.09579 13.31187,0 24.53151,12.73908 22.20764,25.21515 -1.05619,5.67035 -5.26334,12.33038 -9.40066,14.88152 l -3.89763,2.40333 -0.027,16 -0.027,16 8.75014,-0.35627 8.75015,-0.35628 10.75,-10.59225 10.75,-10.59225 -0.0316,-17.05147 -0.0316,-17.05148 -4.31091,-2.61347 c -4.85686,-2.94446 -9.62587,-11.0703 -9.62587,-16.40137 0,-17.4857 16.71702,-28.41369 31.89524,-20.85007 9.339,4.65382 14.91715,16.14173 12.12346,24.96761 -1.73838,5.49193 -5.71856,11.04869 -9.65773,13.48323 l -3.36097,2.07719 v 19.95466 19.95465 l -7.75,7.43575 -7.75,7.43575 27.75,0.028 27.75,0.028 v -40.31471 -40.31471 l -17.75,-17.63163 c -9.7625,-9.69739 -18.9875,-18.58843 -20.5,-19.75786 l -2.75,-2.12625 v -19.40169 -19.40173 l -2.75,-1.43641 c -9.186,-4.79811 -13.75028,-17.6937 -9.69695,-27.397069 6.83568,-16.364114 29.514,-18.064737 38.84403,-2.91287 5.80023,9.419489 3.08421,23.880139 -5.54355,29.515079 l -3.55234,2.32009 -0.67044,14.85725 -0.67043,14.85726 21.09457,20.81774 21.09456,20.81774 -0.41037,21.75491 c -0.2257,11.9652 -0.13949,21.75491 0.19159,21.75491 0.33107,0 5.62722,-5.0625 11.76921,-11.25 l 11.16726,-11.25 0.31643,-15.91585 c 0.25185,-12.6675 0.0415,-16.00764 -1.03048,-16.36563 -0.74079,-0.24738 -2.84772,-1.76753 -4.68206,-3.3781 -9.91348,-8.70415 -9.89046,-23.9969 0.0493,-32.72409 4.88887,-4.29249 9.30115,-6.12204 14.69759,-6.09436 11.44733,0.0587 21.70427,10.44364 21.76016,22.03169 0.0324,6.72519 -4.17812,14.5435 -9.60391,17.83287 l -4.31092,2.61347 -0.0316,19.37579 -0.0316,19.37578 -20,19.74843 -20,19.74844 v 9.62578 c 0,5.29418 -4.5e-4,9.87845 -0.001,10.18726 -5.6e-4,0.30882 8.43694,0.71739 18.75,0.90795 l 18.751,0.34646 16.25,-16.14657 16.25,-16.14658 -0.0611,-15.51137 -0.0611,-15.51137 -4.11599,-3 c -6.30069,-4.59234 -8.99652,-10.47964 -8.55926,-18.6922 0.45295,-8.50738 4.04088,-13.96446 11.93514,-18.1528 4.50148,-2.38828 6.18464,-2.76319 10.48471,-2.33542 12.47356,1.24088 21.37662,10.69331 21.36226,22.68042 -0.007,5.66835 -4.19909,13.35511 -9.35239,17.14801 l -4.55426,3.35199 -0.039,18.58431 -0.039,18.58431 -11.97966,11.8527 c -6.58881,6.51899 -11.85114,11.98122 -11.69406,12.1383 0.15707,0.15707 8.13542,0.42544 17.72965,0.59636 16.27103,0.28988 17.81392,0.48299 22.94407,2.87173 11.13958,5.18689 18.50575,15.77363 19.67309,28.27438 l 0.61612,6.59791 h 14.47932 14.47932 l 4.08737,-4.64349 c 7.2337,-8.21792 17.02645,-10.54702 26.20502,-6.23259 13.15267,6.18249 16.5647,23.11288 6.82964,33.88843 -6.791,7.51682 -15.77094,9.80549 -23.93099,6.09915 -4.26875,-1.93888 -11.41543,-8.72998 -11.43022,-10.8615 -0.007,-0.94586 -3.77996,-1.25 -15.50867,-1.25 h -15.5 v 7.30532 7.30532 l 11.34645,11.19468 11.34645,11.19468 h 16.08616 c 15.09582,0 16.12444,-0.1206 16.70794,-1.95904 1.43115,-4.50917 12.57189,-11.04096 18.83166,-11.04096 8.24994,0 17.40752,6.09769 20.22086,13.46432 7.15979,18.74764 -11.79781,37.02609 -29.23659,28.18919 -5.10781,-2.58832 -8.68519,-6.1318 -9.8291,-9.73597 -0.57199,-1.80216 -1.76154,-1.91754 -19.77033,-1.91754 h -19.16173 l -8.27088,-8.22792 -8.27089,-8.22792 v 27.72792 27.72792 h 40.45025 40.45024 l 18.70395,-19 18.70395,-19 20.5958,-0.0316 20.59581,-0.0316 2.74436,-4.52114 c 5.62996,-9.27495 18.97915,-11.99094 29.27622,-5.95645 8.54016,5.00486 12.59828,16.70412 9.03268,26.0405 -2.96,7.75065 -12.68012,14.5003 -20.88177,14.5003 -7.3036,0 -17.35993,-6.29228 -19.16978,-11.9946 -0.60448,-1.90456 -1.49936,-2.0054 -17.7973,-2.0054 h -17.16081 l -19.3335,19.5 -19.3335,19.5 h -22.10661 -22.10661 l 11.37987,11.5 11.37987,11.5 h 16.78844 c 9.23364,0 16.78844,-0.369 16.78844,-0.82 0,-1.97001 7.74569,-9.61396 11.44419,-11.29387 9.96667,-4.52699 22.97846,0.29537 28.2375,10.46524 0.84556,1.63511 1.75638,5.48747 2.02405,8.56078 0.41565,4.77239 0.0713,6.3704 -2.35953,10.95017 -1.72502,3.24998 -4.55915,6.59833 -7.19462,8.5 -3.98824,2.87779 -4.9952,3.13768 -12.15718,3.13768 -7.22199,0 -8.09754,-0.23134 -11.65159,-3.07871 -2.11355,-1.6933 -4.93072,-4.7308 -6.26036,-6.75 l -2.41755,-3.67129 h -20.35209 -20.3521 l -19.70248,-19.5 -19.70247,-19.5 h -9.27789 -9.27788 v 19.17944 19.17943 l 15.70931,15.82057 15.70931,15.82056 h 15.69191 15.69192 l 1.98285,-3.36069 c 7.41591,-12.56903 25.45894,-13.65856 34.97654,-2.11206 11.82244,14.34267 2.14033,35.47275 -16.25412,35.47275 -7.49049,0 -11.19164,-1.74233 -16.68857,-7.85625 l -4.62467,-5.14375 h -18.86355 -18.86356 l -11.46737,-11.5 c -6.30706,-6.325 -11.81222,-11.5 -12.23369,-11.5 -0.42147,0 -0.76631,6.92333 -0.76631,15.38517 0,18.14367 -1.11726,22.71183 -7.56346,30.92496 -5.31858,6.77642 -13.97195,11.41743 -23.26682,12.47855 -3.42696,0.39123 -6.21709,1.04882 -6.20028,1.46132 0.0168,0.4125 0.0306,7.2383 0.0306,15.16845 v 14.41844 l 3.43191,2.12104 c 4.97353,3.0738 9.31396,10.15995 10.10596,16.49886 1.08238,8.6631 -3.70922,17.51782 -11.69611,21.61404 -5.15799,2.64537 -10.6942,3.31481 -15.88377,1.92067 -6.01529,-1.61597 -14.30654,-9.8336 -15.89747,-15.75631 -2.34862,-8.74346 2.14229,-19.39061 10.48434,-24.85654 2.43076,-1.59269 2.45514,-1.76146 2.45514,-16.99366 V 575.4539 l -7.75,0.01 -7.75,0.01 -11.75,11.53206 -11.75,11.53207 v 15.8221 15.82211 l 3.75,2.61978 c 6.91146,4.82839 11.26239,14.58045 9.59891,21.51473 -1.76126,7.34187 -7.83713,14.9991 -14.06679,17.72794 -13.07091,5.72557 -30.36853,-6.86092 -30.26016,-22.01858 0.0453,-6.33823 5.53295,-15.22974 11.22804,-18.19256 l 2.75,-1.43067 v -18.70453 -18.70454 l 8.72915,-8.76978 8.72915,-8.76979 H 628.14385 599.4147 v 40.28318 40.28318 l 19.5,19.22994 19.5,19.22993 v 19.96121 19.9612 l 2.75,1.43641 c 17.69496,9.24258 13.357,36.50576 -6.44124,40.48181 -7.31759,1.46959 -6.97121,1.50359 -12.92579,-1.26901 z m 12.54551,-13.06086 c 5.20179,-2.68995 5.6866,-9.0002 0.99479,-12.94809 -3.53902,-2.97789 -4.92857,-3.15463 -8.85175,-1.12588 -3.0767,1.59102 -4.07152,3.34646 -4.07152,7.18451 0,6.67642 5.82953,10.04335 11.92848,6.88946 z m -77.92848,-61.53699 c 5.04932,-5.04932 -0.36586,-14.94817 -7.43202,-13.58558 -6.41476,1.23698 -8.70298,8.5415 -4.11344,13.13104 3.10978,3.10978 8.67127,3.32873 11.54546,0.45454 z m -47.25,-37.63657 c 3.04756,-3.35225 2.91748,-7.78685 -0.32347,-11.0278 -4.9082,-4.9082 -13.42653,-1.06816 -13.42653,6.05265 0,8.02064 8.2632,11.01051 13.75,4.97515 z m 143.61514,-5.43601 c 5.22216,-4.10774 2.0218,-14.92742 -4.4154,-14.92742 -3.20091,0 -7.95516,3.1734 -8.59932,5.73993 -2.08633,8.31261 6.45847,14.34464 13.01472,9.18749 z m 56.27909,-24.29782 c 3.91169,-3.3647 3.86325,-8.93616 -0.10738,-12.35156 -2.20594,-1.89747 -3.55665,-2.32408 -5.88439,-1.85853 -4.65031,0.93006 -6.65246,3.31401 -6.65246,7.92103 0,7.77215 6.9191,11.21361 12.64423,6.28906 z m 126.67151,-94.79294 c 5.4,-2.87605 6.38656,-9.35451 2.03824,-13.3844 -3.23569,-2.99873 -7.21055,-3.13952 -10.71912,-0.37968 -3.75441,2.95322 -3.6312,8.08494 0.28821,12.00435 3.1714,3.17139 5.016,3.55816 8.39267,1.75973 z m -426,-2 c 5.01232,-2.66958 6.10267,-7.76371 2.61168,-12.2018 -1.66125,-2.11193 -2.92051,-2.63486 -6.34501,-2.63486 -5.24438,0 -7.98241,2.58025 -7.98241,7.5224 0,6.44051 6.14876,10.27925 11.71574,7.31426 z m 170.68426,-58.87287 v -25.03621 l 9.68866,0.28621 9.68866,0.28621 9.32111,16 c 5.12661,8.8 11.42145,19.9375 13.98854,24.75 l 4.66743,8.75 h 18.3228 c 10.07754,0 18.3228,-0.22404 18.3228,-0.49788 0,-0.86038 -13.95881,-23.39169 -23.7311,-38.30504 -5.15476,-7.86661 -9.58584,-14.85943 -9.84685,-15.53962 -0.27904,-0.72714 1.00023,-1.76998 3.10485,-2.53102 5.79965,-2.09718 15.98503,-12.3896 19.67184,-19.87857 2.7678,-5.6222 3.27941,-7.8619 3.63072,-15.89422 0.46691,-10.6756 -0.64109,-16.20353 -4.98161,-24.85365 -5.32865,-10.61932 -14.03284,-18.09079 -26.42776,-22.68495 -5.59249,-2.07285 -7.87074,-2.21579 -41.17009,-2.58295 l -35.25,-0.38867 v 71.57829 71.57828 h 15.5 15.5 z m 0,-70.37404 v -19.58975 l 14.75,0.006 c 8.1125,0.003 16.42352,0.47036 18.46894,1.03843 8.33306,2.31432 13.46791,10.45595 12.55918,19.91336 -0.65078,6.77279 -4.34922,12.12521 -10.44293,15.11311 -4.30624,2.11146 -6.50349,2.41119 -20.08519,2.73992 l -15.25,0.3691 z m 293.96293,81.94971 c 1.88644,-2.00802 2.19996,-3.15747 1.70473,-6.25 -1.64394,-10.26584 -15.66766,-9.62985 -15.66766,0.71054 0,4.98792 2.96112,8 7.86464,8 2.73002,0 4.43179,-0.68663 6.09829,-2.46054 z m -489.57593,-5.49649 c 5.10552,-1.94112 6.65182,-9.88788 2.63189,-13.52587 -0.97396,-0.88142 -3.36859,-1.86186 -5.3214,-2.17876 -2.92396,-0.47449 -4.00472,-0.12202 -6.12403,1.99729 -3.73544,3.73544 -3.52927,8.68233 0.50326,12.07548 3.36909,2.8349 4.54085,3.06499 8.31028,1.63186 z m -104.9318,-17.66415 c 2.5047,-0.96114 4.80407,-6.20739 4.04827,-9.23652 -1.0408,-4.17131 -3.4269,-6.1423 -7.43595,-6.1423 -5.3747,0 -8.06752,2.31041 -8.06752,6.92185 0,6.88801 5.31616,10.81275 11.4552,8.45697 z m 654.90994,-54.4514 c 3.53887,-2.78367 3.62135,-8.03183 0.18031,-11.47287 -4.93342,-4.93342 -13.54545,-1.65054 -13.54545,5.16349 0,7.11548 7.712,10.75615 13.36514,6.30938 z M 829.09973,394.27958 c 2.53965,-2.38588 3.02457,-6.60806 1.16474,-10.14143 -1.55355,-2.95151 -2.79061,-3.6509 -6.48951,-3.66894 -4.23783,-0.0207 -7.29851,2.71564 -8.01012,7.16122 -0.49031,3.06311 -0.15912,4.10591 1.98496,6.25 3.25864,3.25864 8.12401,3.42974 11.34993,0.39915 z m -483.93555,-8.4191 c 6.22396,-6.96562 -2.34289,-16.90593 -10.71056,-12.42769 -3.03186,1.6226 -4.23586,6.61524 -2.56162,10.62228 2.44327,5.84756 8.87827,6.72291 13.27218,1.80541 z m 120.2529,-33.24602 c 1.29999,-33.73421 1.90173,-36.22881 10.90973,-45.2273 9.1587,-9.14904 8.68963,-9.06752 58.08737,-10.09537 60.2427,-1.25351 63.81242,-2.53432 8,-2.87039 -65.51613,-0.3945 -62.37105,-0.72689 -70.55472,7.45677 -8.12661,8.12662 -9.44528,13.50501 -9.44528,38.52406 0,18.26865 1.13711,47.13979 1.67593,42.55166 0.12919,-1.1 0.72632,-14.75274 1.32697,-30.33943 z m 339.54255,-12.61511 c 3.10978,-3.10978 3.32874,-8.67127 0.45455,-11.54546 -4.64174,-4.64174 -14,-0.75158 -14,5.81969 0,7.36484 8.36881,10.90241 13.54545,5.72577 z m -425.57089,-0.52002 c 2.89247,-2.89247 3.43185,-6.33884 1.55892,-9.96069 -1.80102,-3.48278 -5.7598,-5.47574 -9.17452,-4.6187 -3.73006,0.93618 -5.35896,3.3839 -5.35896,8.0528 0,3.51478 0.50883,4.75624 2.63486,6.42857 3.32396,2.61463 7.78084,2.65688 10.3397,0.098 z m 129.71099,-97.19975 c 2.91286,-2.73649 3.23716,-9.68418 0.56445,-12.09279 -2.26483,-2.04103 -6.54724,-3.09072 -9.1888,-2.25232 -2.88873,0.91685 -5.25853,5.84728 -4.45118,9.2608 1.60622,6.79119 8.43301,9.44573 13.07553,5.08431 z m 55.67959,-23.89827 c 2.08345,-1.63884 2.63486,-2.93331 2.63486,-6.18554 0,-8.03006 -8.06106,-11.77172 -13.54546,-6.28733 -7.42666,7.42667 2.66268,18.96069 10.9106,12.47287 z m 145.38486,-8.52083 c 3.26927,-3.65885 2.92745,-7.65876 -0.93202,-10.90629 -2.49135,-2.09633 -3.84793,-2.54908 -6.25,-2.08588 -3.94614,0.76095 -6.56798,3.95652 -6.56798,8.00524 0,7.84596 8.45528,10.91258 13.75,4.98693 z m -48.82152,-33.8696 c 1.55603,-0.80466 3.10869,-2.19146 3.45034,-3.08179 3.36741,-8.77533 -6.50807,-16.41686 -12.92428,-10.00065 -4.05475,4.05475 -3.08211,10.39698 2.04546,13.33764 2.67097,1.5318 4.06543,1.4839 7.42848,-0.2552 z m -80.38303,-61.99153 c 5.12293,-5.12292 1.43727,-13.54545 -5.92742,-13.54545 -6.6401,0 -10.10865,8.71995 -5.44372,13.68555 2.97908,3.17108 8.12335,3.1077 11.37114,-0.1401 z"
       id="path1" />
  </g>
</svg>
